<svg xmlns="http://www.w3.org/2000/svg" xmlns:xlink="http://www.w3.org/1999/xlink" width="500" zoomAndPan="magnify" viewBox="0 0 375 374.999991" height="500" preserveAspectRatio="xMidYMid meet" version="1.0"><defs><clipPath id="63a004c8f5"><path d="M 0 0.078125 L 312 0.078125 L 312 138 L 0 138 Z M 0 0.078125 " clip-rule="nonzero"/></clipPath><clipPath id="fb9d72ba7a"><path d="M 37 43 L 375 43 L 375 187.519531 L 37 187.519531 Z M 37 43 " clip-rule="nonzero"/></clipPath><clipPath id="6a714ab7d5"><path d="M 113.183594 32.042969 L 245.425781 32.042969 L 245.425781 164.285156 L 113.183594 164.285156 Z M 113.183594 32.042969 " clip-rule="nonzero"/></clipPath><clipPath id="c6f0b60cfa"><rect x="0" width="375" y="0" height="188"/></clipPath></defs><g transform="matrix(1, 0, 0, 1, 0, 94)"><g clip-path="url(#c6f0b60cfa)"><path fill="#bd9d60" d="M 179.320312 160.8125 C 143.703125 160.8125 114.828125 131.9375 114.828125 96.320312 C 114.828125 60.703125 143.703125 31.828125 179.320312 31.828125 C 214.9375 31.828125 243.808594 60.703125 243.808594 96.320312 C 243.808594 131.9375 214.9375 160.8125 179.320312 160.8125 Z M 179.320312 23.5 C 139.101562 23.5 106.5 56.101562 106.5 96.320312 C 106.5 136.535156 139.101562 169.136719 179.320312 169.136719 C 219.535156 169.136719 252.136719 136.535156 252.136719 96.320312 C 252.136719 56.101562 219.535156 23.5 179.320312 23.5 " fill-opacity="1" fill-rule="nonzero"/><path fill="#bd9d60" d="M 201.3125 101.023438 C 185.851562 101.023438 173.320312 88.488281 173.320312 73.027344 C 173.320312 65.71875 176.125 59.0625 180.714844 54.078125 C 180.25 54.0625 179.785156 54.050781 179.320312 54.050781 C 155.976562 54.050781 137.050781 72.972656 137.050781 96.320312 C 137.050781 119.660156 155.976562 138.585938 179.320312 138.585938 C 202.660156 138.585938 221.585938 119.660156 221.585938 96.320312 C 221.585938 95.035156 221.523438 93.765625 221.414062 92.507812 C 216.324219 97.761719 209.199219 101.023438 201.3125 101.023438 " fill-opacity="1" fill-rule="nonzero"/><g clip-path="url(#63a004c8f5)"><path fill="#bd9d60" d="M 0.121094 137.78125 C 33.640625 71.140625 95.074219 38.203125 156.191406 36.105469 C 163.371094 33.34375 171.167969 31.828125 179.320312 31.828125 C 193.890625 31.828125 207.332031 36.664062 218.132812 44.8125 C 243.164062 53 266.296875 66.835938 285.210938 86.085938 C 296.160156 72.273438 304.820312 56.339844 310.621094 38.671875 L 311.96875 34.570312 C 203.550781 -35.40625 45.773438 3.527344 0.121094 137.78125 " fill-opacity="1" fill-rule="nonzero"/></g><g clip-path="url(#fb9d72ba7a)"><path fill="#e1b076" d="M 324.28125 43.152344 C 305.875 99.234375 263.523438 135.574219 214.40625 150.433594 C 204.308594 156.996094 192.257812 160.8125 179.320312 160.8125 C 172.828125 160.8125 166.558594 159.847656 160.652344 158.0625 C 116.53125 157.625 71.894531 141.148438 37.363281 107.535156 C 118.972656 208.507812 291.757812 222.386719 374.851562 97.039062 C 360.492188 75.382812 343.3125 57.449219 324.28125 43.152344 " fill-opacity="1" fill-rule="nonzero"/></g><g clip-path="url(#6a714ab7d5)"><path fill="#393536" d="M 245.441406 98.171875 C 245.441406 99.253906 245.414062 100.335938 245.359375 101.414062 C 245.308594 102.496094 245.226562 103.574219 245.121094 104.652344 C 245.015625 105.730469 244.882812 106.804688 244.726562 107.875 C 244.566406 108.945312 244.382812 110.011719 244.171875 111.070312 C 243.957031 112.132812 243.722656 113.1875 243.457031 114.238281 C 243.195312 115.289062 242.90625 116.332031 242.59375 117.367188 C 242.277344 118.402344 241.941406 119.429688 241.574219 120.449219 C 241.210938 121.46875 240.820312 122.476562 240.40625 123.476562 C 239.992188 124.476562 239.554688 125.464844 239.089844 126.445312 C 238.628906 127.421875 238.140625 128.386719 237.632812 129.34375 C 237.121094 130.296875 236.589844 131.238281 236.03125 132.167969 C 235.476562 133.09375 234.898438 134.007812 234.296875 134.910156 C 233.695312 135.808594 233.070312 136.695312 232.425781 137.5625 C 231.78125 138.433594 231.117188 139.285156 230.429688 140.121094 C 229.742188 140.957031 229.035156 141.777344 228.308594 142.578125 C 227.582031 143.382812 226.835938 144.164062 226.070312 144.929688 C 225.308594 145.695312 224.523438 146.441406 223.722656 147.167969 C 222.917969 147.894531 222.101562 148.601562 221.261719 149.289062 C 220.425781 149.976562 219.574219 150.640625 218.703125 151.285156 C 217.835938 151.929688 216.949219 152.554688 216.050781 153.152344 C 215.152344 153.753906 214.238281 154.335938 213.308594 154.890625 C 212.378906 155.445312 211.4375 155.980469 210.484375 156.492188 C 209.53125 157 208.5625 157.488281 207.585938 157.949219 C 206.605469 158.414062 205.617188 158.851562 204.617188 159.265625 C 203.617188 159.679688 202.609375 160.070312 201.589844 160.433594 C 200.570312 160.796875 199.542969 161.136719 198.507812 161.453125 C 197.472656 161.765625 196.429688 162.054688 195.378906 162.316406 C 194.332031 162.578125 193.273438 162.816406 192.214844 163.027344 C 191.152344 163.238281 190.085938 163.425781 189.015625 163.582031 C 187.945312 163.742188 186.871094 163.875 185.792969 163.980469 C 184.714844 164.085938 183.636719 164.167969 182.558594 164.21875 C 181.476562 164.273438 180.394531 164.300781 179.3125 164.300781 C 178.230469 164.300781 177.148438 164.273438 176.066406 164.21875 C 174.988281 164.167969 173.90625 164.085938 172.832031 163.980469 C 171.753906 163.875 170.679688 163.742188 169.609375 163.582031 C 168.539062 163.425781 167.472656 163.238281 166.410156 163.027344 C 165.347656 162.816406 164.292969 162.578125 163.242188 162.316406 C 162.195312 162.054688 161.152344 161.765625 160.117188 161.453125 C 159.082031 161.136719 158.054688 160.796875 157.035156 160.433594 C 156.015625 160.070312 155.003906 159.679688 154.003906 159.265625 C 153.007812 158.851562 152.015625 158.414062 151.039062 157.949219 C 150.058594 157.488281 149.09375 157 148.140625 156.492188 C 147.183594 155.980469 146.242188 155.445312 145.316406 154.890625 C 144.386719 154.335938 143.472656 153.753906 142.574219 153.152344 C 141.671875 152.554688 140.789062 151.929688 139.917969 151.285156 C 139.050781 150.640625 138.195312 149.976562 137.359375 149.289062 C 136.523438 148.601562 135.703125 147.894531 134.902344 147.167969 C 134.101562 146.441406 133.316406 145.695312 132.550781 144.929688 C 131.785156 144.164062 131.039062 143.382812 130.3125 142.578125 C 129.585938 141.777344 128.878906 140.957031 128.195312 140.121094 C 127.507812 139.285156 126.839844 138.433594 126.195312 137.5625 C 125.550781 136.695312 124.929688 135.808594 124.328125 134.910156 C 123.726562 134.007812 123.148438 133.09375 122.589844 132.167969 C 122.035156 131.238281 121.503906 130.296875 120.992188 129.34375 C 120.480469 128.386719 119.996094 127.421875 119.53125 126.445312 C 119.070312 125.464844 118.632812 124.476562 118.21875 123.476562 C 117.804688 122.476562 117.414062 121.46875 117.050781 120.449219 C 116.683594 119.429688 116.34375 118.402344 116.03125 117.367188 C 115.714844 116.332031 115.429688 115.289062 115.164062 114.238281 C 114.902344 113.1875 114.664062 112.132812 114.453125 111.070312 C 114.242188 110.011719 114.058594 108.945312 113.898438 107.875 C 113.742188 106.804688 113.609375 105.730469 113.5 104.652344 C 113.394531 103.574219 113.316406 102.496094 113.261719 101.414062 C 113.210938 100.335938 113.183594 99.253906 113.183594 98.171875 C 113.183594 97.089844 113.210938 96.007812 113.261719 94.925781 C 113.316406 93.84375 113.394531 92.765625 113.5 91.6875 C 113.609375 90.613281 113.742188 89.539062 113.898438 88.46875 C 114.058594 87.398438 114.242188 86.332031 114.453125 85.269531 C 114.664062 84.207031 114.902344 83.152344 115.164062 82.101562 C 115.429688 81.050781 115.714844 80.011719 116.03125 78.972656 C 116.34375 77.9375 116.683594 76.910156 117.050781 75.890625 C 117.414062 74.875 117.804688 73.863281 118.21875 72.863281 C 118.632812 71.863281 119.070312 70.875 119.53125 69.898438 C 119.996094 68.917969 120.480469 67.953125 120.992188 66.996094 C 121.503906 66.042969 122.035156 65.101562 122.589844 64.171875 C 123.148438 63.246094 123.726562 62.332031 124.328125 61.429688 C 124.929688 60.53125 125.550781 59.648438 126.195312 58.777344 C 126.839844 57.910156 127.507812 57.054688 128.195312 56.21875 C 128.878906 55.382812 129.585938 54.5625 130.3125 53.761719 C 131.039062 52.960938 131.785156 52.175781 132.550781 51.410156 C 133.316406 50.644531 134.101562 49.898438 134.902344 49.171875 C 135.703125 48.445312 136.523438 47.738281 137.359375 47.050781 C 138.195312 46.367188 139.050781 45.699219 139.917969 45.054688 C 140.789062 44.410156 141.671875 43.789062 142.574219 43.1875 C 143.472656 42.585938 144.386719 42.007812 145.316406 41.449219 C 146.242188 40.894531 147.183594 40.359375 148.140625 39.851562 C 149.09375 39.339844 150.058594 38.851562 151.039062 38.390625 C 152.015625 37.929688 153.007812 37.488281 154.003906 37.074219 C 155.003906 36.660156 156.015625 36.273438 157.035156 35.90625 C 158.054688 35.542969 159.082031 35.203125 160.117188 34.890625 C 161.152344 34.574219 162.195312 34.285156 163.242188 34.023438 C 164.292969 33.761719 165.347656 33.523438 166.410156 33.3125 C 167.472656 33.101562 168.539062 32.917969 169.609375 32.757812 C 170.679688 32.597656 171.753906 32.464844 172.832031 32.359375 C 173.90625 32.253906 174.988281 32.175781 176.066406 32.121094 C 177.148438 32.066406 178.230469 32.042969 179.3125 32.042969 C 180.394531 32.042969 181.476562 32.066406 182.558594 32.121094 C 183.636719 32.175781 184.714844 32.253906 185.792969 32.359375 C 186.871094 32.464844 187.945312 32.597656 189.015625 32.757812 C 190.085938 32.917969 191.152344 33.101562 192.214844 33.3125 C 193.273438 33.523438 194.332031 33.761719 195.378906 34.023438 C 196.429688 34.285156 197.472656 34.574219 198.507812 34.890625 C 199.542969 35.203125 200.570312 35.542969 201.589844 35.90625 C 202.609375 36.273438 203.617188 36.660156 204.617188 37.074219 C 205.617188 37.488281 206.605469 37.929688 207.585938 38.390625 C 208.5625 38.851562 209.53125 39.339844 210.484375 39.851562 C 211.4375 40.359375 212.378906 40.894531 213.308594 41.449219 C 214.238281 42.007812 215.152344 42.585938 216.050781 43.1875 C 216.949219 43.789062 217.835938 44.410156 218.703125 45.054688 C 219.574219 45.699219 220.425781 46.367188 221.261719 47.050781 C 222.101562 47.738281 222.917969 48.445312 223.722656 49.171875 C 224.523438 49.898438 225.308594 50.644531 226.070312 51.410156 C 226.835938 52.175781 227.582031 52.960938 228.308594 53.761719 C 229.035156 54.5625 229.742188 55.382812 230.429688 56.21875 C 231.117188 57.054688 231.78125 57.910156 232.425781 58.777344 C 233.070312 59.648438 233.695312 60.53125 234.296875 61.429688 C 234.898438 62.332031 235.476562 63.246094 236.03125 64.171875 C 236.589844 65.101562 237.121094 66.042969 237.632812 66.996094 C 238.140625 67.953125 238.628906 68.917969 239.089844 69.898438 C 239.554688 70.875 239.992188 71.863281 240.40625 72.863281 C 240.820312 73.863281 241.210938 74.875 241.574219 75.890625 C 241.941406 76.910156 242.277344 77.9375 242.59375 78.972656 C 242.90625 80.011719 243.195312 81.050781 243.457031 82.101562 C 243.722656 83.152344 243.957031 84.207031 244.171875 85.269531 C 244.382812 86.332031 244.566406 87.398438 244.726562 88.46875 C 244.882812 89.539062 245.015625 90.613281 245.121094 91.6875 C 245.226562 92.765625 245.308594 93.84375 245.359375 94.925781 C 245.414062 96.007812 245.441406 97.089844 245.441406 98.171875 Z M 245.441406 98.171875 " fill-opacity="1" fill-rule="nonzero"/></g><path fill="#bd9d60" d="M 179.3125 71.253906 C 175.980469 71.253906 173.292969 68.542969 173.292969 65.234375 C 173.292969 61.929688 176.003906 59.214844 179.3125 59.214844 C 182.644531 59.214844 185.332031 61.929688 185.332031 65.234375 C 185.332031 68.542969 182.644531 71.253906 179.3125 71.253906 Z M 179.3125 61.308594 C 177.167969 61.308594 175.410156 63.066406 175.410156 65.210938 C 175.410156 67.351562 177.167969 69.109375 179.3125 69.109375 C 181.457031 69.109375 183.210938 67.351562 183.210938 65.210938 C 183.210938 63.066406 181.457031 61.308594 179.3125 61.308594 Z M 179.3125 61.308594 " fill-opacity="1" fill-rule="nonzero"/><path fill="#bd9d60" d="M 179.3125 68.023438 C 177.761719 68.023438 176.496094 66.757812 176.496094 65.210938 C 176.496094 63.660156 177.761719 62.394531 179.3125 62.394531 C 180.863281 62.394531 182.128906 63.660156 182.128906 65.210938 C 182.128906 66.785156 180.863281 68.023438 179.3125 68.023438 Z M 179.3125 64.539062 C 178.925781 64.539062 178.613281 64.847656 178.613281 65.234375 C 178.613281 65.621094 178.925781 65.933594 179.3125 65.933594 C 179.699219 65.933594 180.007812 65.621094 180.007812 65.234375 C 180.007812 64.847656 179.699219 64.539062 179.3125 64.539062 Z M 179.3125 64.539062 " fill-opacity="1" fill-rule="nonzero"/><path fill="#bd9d60" d="M 176.445312 126.042969 C 175.851562 126.042969 175.386719 125.578125 175.386719 124.984375 L 175.386719 83.109375 L 150.40625 83.109375 C 148.703125 83.109375 147.332031 81.742188 147.332031 80.035156 C 147.332031 78.332031 148.703125 76.960938 150.40625 76.960938 L 175.386719 76.960938 L 175.386719 69.289062 C 175.386719 68.695312 175.851562 68.230469 176.445312 68.230469 C 177.039062 68.230469 177.503906 68.695312 177.503906 69.289062 L 177.503906 78.023438 C 177.503906 78.304688 177.402344 78.5625 177.195312 78.769531 C 176.988281 78.976562 176.730469 79.082031 176.445312 79.082031 L 150.40625 79.082031 C 149.890625 79.082031 149.449219 79.519531 149.449219 80.035156 C 149.449219 80.554688 149.890625 80.992188 150.40625 80.992188 L 176.445312 80.992188 C 177.039062 80.992188 177.503906 81.457031 177.503906 82.050781 L 177.503906 124.984375 C 177.503906 125.578125 177.011719 126.042969 176.445312 126.042969 Z M 176.445312 126.042969 " fill-opacity="1" fill-rule="nonzero"/><path fill="#bd9d60" d="M 182.179688 126.042969 C 181.585938 126.042969 181.121094 125.578125 181.121094 124.984375 L 181.121094 82.050781 C 181.121094 81.457031 181.585938 80.992188 182.179688 80.992188 L 208.21875 80.992188 C 208.734375 80.992188 209.171875 80.554688 209.171875 80.035156 C 209.171875 79.519531 208.734375 79.082031 208.21875 79.082031 L 182.179688 79.082031 C 181.894531 79.082031 181.636719 78.976562 181.429688 78.769531 C 181.222656 78.5625 181.121094 78.304688 181.121094 78.023438 L 181.121094 69.289062 C 181.121094 68.695312 181.585938 68.230469 182.179688 68.230469 C 182.773438 68.230469 183.238281 68.695312 183.238281 69.289062 L 183.238281 76.960938 L 208.21875 76.960938 C 209.921875 76.960938 211.292969 78.332031 211.292969 80.035156 C 211.292969 81.742188 209.921875 83.109375 208.21875 83.109375 L 183.238281 83.109375 L 183.238281 124.984375 C 183.238281 125.578125 182.773438 126.042969 182.179688 126.042969 Z M 182.179688 126.042969 " fill-opacity="1" fill-rule="nonzero"/><path fill="#bd9d60" d="M 148.777344 114.625 C 148.703125 114.625 148.625 114.625 148.519531 114.597656 C 147.953125 114.46875 147.589844 113.902344 147.746094 113.332031 L 155.367188 81.820312 C 155.496094 81.25 156.0625 80.890625 156.632812 81.042969 C 157.199219 81.171875 157.5625 81.742188 157.40625 82.308594 L 149.785156 113.824219 C 149.710938 114.316406 149.269531 114.625 148.777344 114.625 Z M 148.777344 114.625 " fill-opacity="1" fill-rule="nonzero"/><path fill="#bd9d60" d="M 164.046875 114.625 C 163.582031 114.625 163.140625 114.289062 163.011719 113.824219 L 155.390625 82.308594 C 155.261719 81.742188 155.597656 81.171875 156.167969 81.042969 C 156.734375 80.914062 157.304688 81.25 157.433594 81.820312 L 165.054688 113.332031 C 165.183594 113.902344 164.847656 114.46875 164.277344 114.597656 C 164.199219 114.625 164.125 114.625 164.046875 114.625 Z M 164.046875 114.625 " fill-opacity="1" fill-rule="nonzero"/><path fill="#bd9d60" d="M 158.75 121.339844 L 154.101562 121.339844 C 149.8125 121.339844 146.324219 117.855469 146.324219 113.566406 C 146.324219 112.972656 146.789062 112.507812 147.382812 112.507812 L 165.464844 112.507812 C 166.058594 112.507812 166.527344 112.972656 166.527344 113.566406 C 166.5 117.855469 163.011719 121.339844 158.75 121.339844 Z M 148.519531 114.625 C 149.011719 117.234375 151.3125 119.222656 154.074219 119.222656 L 158.722656 119.222656 C 161.488281 119.222656 163.789062 117.234375 164.277344 114.625 Z M 148.519531 114.625 " fill-opacity="1" fill-rule="nonzero"/><path fill="#bd9d60" d="M 194.578125 114.625 C 194.5 114.625 194.421875 114.625 194.320312 114.597656 C 193.75 114.46875 193.417969 113.902344 193.546875 113.332031 L 201.164062 81.820312 C 201.292969 81.25 201.863281 80.890625 202.429688 81.042969 C 203 81.171875 203.335938 81.742188 203.207031 82.308594 L 195.585938 113.824219 C 195.507812 114.316406 195.070312 114.625 194.578125 114.625 Z M 194.578125 114.625 " fill-opacity="1" fill-rule="nonzero"/><path fill="#bd9d60" d="M 209.84375 114.625 C 209.378906 114.625 208.941406 114.289062 208.8125 113.824219 L 201.191406 82.308594 C 201.0625 81.742188 201.398438 81.171875 201.964844 81.042969 C 202.535156 80.914062 203.101562 81.25 203.230469 81.820312 L 210.851562 113.332031 C 210.980469 113.902344 210.644531 114.46875 210.078125 114.597656 C 210 114.625 209.921875 114.625 209.84375 114.625 Z M 209.84375 114.625 " fill-opacity="1" fill-rule="nonzero"/><path fill="#bd9d60" d="M 204.550781 121.339844 L 199.898438 121.339844 C 195.613281 121.339844 192.125 117.855469 192.125 113.566406 C 192.125 112.972656 192.589844 112.507812 193.183594 112.507812 L 211.265625 112.507812 C 211.859375 112.507812 212.324219 112.972656 212.324219 113.566406 C 212.300781 117.855469 208.835938 121.339844 204.550781 121.339844 Z M 194.320312 114.625 C 194.8125 117.234375 197.109375 119.222656 199.875 119.222656 L 204.523438 119.222656 C 207.289062 119.222656 209.585938 117.234375 210.078125 114.625 Z M 194.320312 114.625 " fill-opacity="1" fill-rule="nonzero"/><path fill="#bd9d60" d="M 188.300781 132.707031 C 187.707031 132.707031 187.242188 132.242188 187.242188 131.648438 C 187.242188 128.574219 184.738281 126.042969 181.636719 126.042969 L 176.960938 126.042969 C 173.886719 126.042969 171.355469 128.546875 171.355469 131.648438 C 171.355469 132.242188 170.890625 132.707031 170.296875 132.707031 C 169.703125 132.707031 169.238281 132.242188 169.238281 131.648438 C 169.238281 127.386719 172.699219 123.925781 176.9375 123.925781 L 181.609375 123.925781 C 185.875 123.925781 189.335938 127.386719 189.335938 131.648438 C 189.359375 132.214844 188.894531 132.707031 188.300781 132.707031 Z M 188.300781 132.707031 " fill-opacity="1" fill-rule="nonzero"/><path fill="#bd9d60" d="M 192.5625 137.148438 L 166.058594 137.148438 C 165.464844 137.148438 165 136.683594 165 136.089844 L 165 131.648438 C 165 131.054688 165.464844 130.589844 166.058594 130.589844 L 192.5625 130.589844 C 193.15625 130.589844 193.621094 131.054688 193.621094 131.648438 L 193.621094 136.089844 C 193.621094 136.660156 193.15625 137.148438 192.5625 137.148438 Z M 167.121094 135.03125 L 191.503906 135.03125 L 191.503906 132.707031 L 167.121094 132.707031 Z M 167.121094 135.03125 " fill-opacity="1" fill-rule="nonzero"/></g></g></svg>
